<svg width="1440" height="900" viewBox="0 0 1440 900" fill="none" xmlns="http://www.w3.org/2000/svg">
<g clip-path="url(#clip0_8471_24645)">
<circle cx="961.394" cy="122.093" r="0.678066" fill="white" fill-opacity="0.56"/>
<circle cx="856.972" cy="84.1212" r="0.678066" fill="white" fill-opacity="0.56"/>
<circle cx="1094.29" cy="54.2862" r="0.678066" fill="white" fill-opacity="0.56"/>
<circle cx="926.135" cy="23.0953" r="0.678066" fill="white" fill-opacity="0.56"/>
<circle cx="913.93" cy="221.091" r="0.678066" fill="white" fill-opacity="0.56"/>
<circle cx="833.918" cy="111.244" r="0.678066" fill="white" fill-opacity="0.56"/>
<circle cx="1037.34" cy="73.2722" r="0.678066" fill="white" fill-opacity="0.56"/>
<circle cx="1080.73" cy="233.296" r="0.678066" fill="white" fill-opacity="0.56"/>
<circle cx="962.752" cy="196.68" r="0.678066" fill="white" fill-opacity="0.56"/>
<circle cx="1007.5" cy="9.5339" r="0.678066" fill="white" fill-opacity="0.56"/>
<circle cx="1258.39" cy="21.7391" r="0.678066" fill="white" fill-opacity="0.56"/>
<circle cx="1160.75" cy="123.449" r="0.678066" fill="white" fill-opacity="0.56"/>
<circle cx="989.873" cy="173.626" r="0.678066" fill="white" fill-opacity="0.56"/>
<circle cx="743.056" cy="31.232" r="0.678066" fill="white" fill-opacity="0.56"/>
<circle cx="842.055" cy="8.17782" r="0.678066" fill="white" fill-opacity="0.56"/>
<circle cx="924.779" cy="127.517" r="0.678066" fill="white" fill-opacity="0.56"/>
<circle cx="733.564" cy="128.874" r="0.678066" fill="white" fill-opacity="0.56"/>
<circle cx="1172.95" cy="29.8759" r="0.678066" fill="white" fill-opacity="0.56"/>
<circle cx="1117.35" cy="6.82168" r="0.678066" fill="white" fill-opacity="0.56"/>
<circle cx="1017" cy="146.503" r="0.678066" fill="white" fill-opacity="0.56"/>
<circle cx="927.49" cy="63.7791" r="0.678066" fill="white" fill-opacity="0.56"/>
<circle cx="964.107" cy="5.46554" r="0.678066" fill="white" fill-opacity="0.56"/>
<circle cx="1106.5" cy="104.463" r="0.678066" fill="white" fill-opacity="0.56"/>
<circle cx="1059.04" cy="231.94" r="0.678066" fill="white" fill-opacity="0.56"/>
<circle cx="837.988" cy="113.956" r="0.678066" fill="white" fill-opacity="0.56"/>
<circle cx="733.566" cy="75.9843" r="0.678066" fill="white" fill-opacity="0.56"/>
<circle cx="970.89" cy="46.1494" r="0.678066" fill="white" fill-opacity="0.56"/>
<circle cx="802.728" cy="14.9585" r="0.678066" fill="white" fill-opacity="0.56"/>
<circle cx="790.523" cy="212.954" r="0.678066" fill="white" fill-opacity="0.56"/>
<circle cx="710.512" cy="103.107" r="0.678066" fill="white" fill-opacity="0.56"/>
<circle cx="913.931" cy="65.1353" r="0.678066" fill="white" fill-opacity="0.56"/>
<circle cx="957.328" cy="225.159" r="0.678066" fill="white" fill-opacity="0.56"/>
<circle cx="839.344" cy="188.543" r="0.678066" fill="white" fill-opacity="0.56"/>
<circle cx="884.097" cy="1.39706" r="0.678066" fill="white" fill-opacity="0.56"/>
<circle cx="1134.98" cy="13.6023" r="0.678066" fill="white" fill-opacity="0.56"/>
<circle cx="1037.34" cy="115.312" r="0.678066" fill="white" fill-opacity="0.56"/>
<circle cx="866.467" cy="165.489" r="0.678066" fill="white" fill-opacity="0.56"/>
<circle cx="619.652" cy="23.0952" r="0.678066" fill="white" fill-opacity="0.56"/>
<circle cx="718.648" cy="0.0409811" r="0.678066" fill="white" fill-opacity="0.56"/>
<circle cx="801.373" cy="119.381" r="0.678066" fill="white" fill-opacity="0.56"/>
<circle cx="610.158" cy="120.737" r="0.678066" fill="white" fill-opacity="0.56"/>
<circle cx="1049.54" cy="21.7391" r="0.678066" fill="white" fill-opacity="0.56"/>
<circle cx="893.59" cy="138.366" r="0.678066" fill="white" fill-opacity="0.56"/>
<circle cx="804.086" cy="55.6424" r="0.678066" fill="white" fill-opacity="0.56"/>
<circle cx="983.094" cy="96.3263" r="0.678066" fill="white" fill-opacity="0.56"/>
<circle cx="935.629" cy="223.803" r="0.678066" fill="white" fill-opacity="0.56"/>
<circle cx="1212.28" cy="329.581" r="0.678066" fill="white" fill-opacity="0.56"/>
<circle cx="1107.86" cy="291.609" r="0.678066" fill="white" fill-opacity="0.56"/>
<circle cx="1345.18" cy="261.775" r="0.678066" fill="white" fill-opacity="0.56"/>
<circle cx="1177.02" cy="230.583" r="0.678066" fill="white" fill-opacity="0.56"/>
<circle cx="1164.81" cy="428.579" r="0.678066" fill="white" fill-opacity="0.56"/>
<circle cx="1084.8" cy="318.732" r="0.678066" fill="white" fill-opacity="0.56"/>
<circle cx="1288.22" cy="280.76" r="0.678066" fill="white" fill-opacity="0.56"/>
<circle cx="1331.62" cy="440.784" r="0.678066" fill="white" fill-opacity="0.56"/>
<circle cx="1213.63" cy="404.168" r="0.678066" fill="white" fill-opacity="0.56"/>
<circle cx="1258.38" cy="217.022" r="0.678066" fill="white" fill-opacity="0.56"/>
<circle cx="1411.63" cy="330.937" r="0.678066" fill="white" fill-opacity="0.56"/>
<circle cx="1240.76" cy="381.114" r="0.678066" fill="white" fill-opacity="0.56"/>
<circle cx="993.939" cy="238.72" r="0.678066" fill="white" fill-opacity="0.56"/>
<circle cx="1092.94" cy="215.666" r="0.678066" fill="white" fill-opacity="0.56"/>
<circle cx="1175.66" cy="335.006" r="0.678066" fill="white" fill-opacity="0.56"/>
<circle cx="984.447" cy="336.362" r="0.678066" fill="white" fill-opacity="0.56"/>
<circle cx="1423.83" cy="237.364" r="0.678066" fill="white" fill-opacity="0.56"/>
<circle cx="1368.23" cy="214.31" r="0.678066" fill="white" fill-opacity="0.56"/>
<circle cx="1267.88" cy="353.992" r="0.678066" fill="white" fill-opacity="0.56"/>
<circle cx="1178.37" cy="271.267" r="0.678066" fill="white" fill-opacity="0.56"/>
<circle cx="1214.99" cy="212.954" r="0.678066" fill="white" fill-opacity="0.56"/>
<circle cx="1357.38" cy="311.951" r="0.678066" fill="white" fill-opacity="0.56"/>
<circle cx="1309.92" cy="439.428" r="0.678066" fill="white" fill-opacity="0.56"/>
<circle cx="1266.52" cy="99.0387" r="0.678066" fill="white" fill-opacity="0.56"/>
<circle cx="1162.1" cy="61.067" r="0.678066" fill="white" fill-opacity="0.56"/>
<circle cx="1399.42" cy="31.2321" r="0.678066" fill="white" fill-opacity="0.56"/>
<circle cx="1231.26" cy="0.0411031" r="0.678066" fill="white" fill-opacity="0.56"/>
<circle cx="1219.06" cy="198.036" r="0.678066" fill="white" fill-opacity="0.56"/>
<circle cx="1139.05" cy="88.1897" r="0.678066" fill="white" fill-opacity="0.56"/>
<circle cx="1342.47" cy="50.2179" r="0.678066" fill="white" fill-opacity="0.56"/>
<circle cx="1385.86" cy="210.242" r="0.678066" fill="white" fill-opacity="0.56"/>
<circle cx="1267.88" cy="173.626" r="0.678066" fill="white" fill-opacity="0.56"/>
<circle cx="1295" cy="150.572" r="0.678066" fill="white" fill-opacity="0.56"/>
<circle cx="1048.19" cy="8.17788" r="0.678066" fill="white" fill-opacity="0.56"/>
<circle cx="1229.91" cy="104.463" r="0.678066" fill="white" fill-opacity="0.56"/>
<circle cx="1038.69" cy="105.819" r="0.678066" fill="white" fill-opacity="0.56"/>
<circle cx="1322.12" cy="123.449" r="0.678066" fill="white" fill-opacity="0.56"/>
<circle cx="1232.62" cy="40.725" r="0.678066" fill="white" fill-opacity="0.56"/>
<circle cx="1411.63" cy="81.409" r="0.678066" fill="white" fill-opacity="0.56"/>
<circle cx="1364.17" cy="208.885" r="0.678066" fill="white" fill-opacity="0.56"/>
<circle cx="794.59" cy="405.525" r="0.678066" fill="white" fill-opacity="0.56"/>
<circle cx="690.168" cy="367.553" r="0.678066" fill="white" fill-opacity="0.56"/>
<circle cx="927.49" cy="337.718" r="0.678066" fill="white" fill-opacity="0.56"/>
<circle cx="759.33" cy="306.527" r="0.678066" fill="white" fill-opacity="0.56"/>
<circle cx="747.125" cy="504.522" r="0.678066" fill="white" fill-opacity="0.56"/>
<circle cx="667.113" cy="394.675" r="0.678066" fill="white" fill-opacity="0.56"/>
<circle cx="870.533" cy="356.704" r="0.678066" fill="white" fill-opacity="0.56"/>
<circle cx="913.93" cy="516.727" r="0.678066" fill="white" fill-opacity="0.56"/>
<circle cx="795.947" cy="480.112" r="0.678066" fill="white" fill-opacity="0.56"/>
<circle cx="840.697" cy="292.966" r="0.678066" fill="white" fill-opacity="0.56"/>
<circle cx="1091.58" cy="305.171" r="0.678066" fill="white" fill-opacity="0.56"/>
<circle cx="993.941" cy="406.881" r="0.678066" fill="white" fill-opacity="0.56"/>
<circle cx="823.068" cy="457.058" r="0.678066" fill="white" fill-opacity="0.56"/>
<circle cx="576.252" cy="314.664" r="0.678066" fill="white" fill-opacity="0.56"/>
<circle cx="675.25" cy="291.609" r="0.678066" fill="white" fill-opacity="0.56"/>
<circle cx="757.974" cy="410.949" r="0.678066" fill="white" fill-opacity="0.56"/>
<circle cx="566.76" cy="412.305" r="0.678066" fill="white" fill-opacity="0.56"/>
<circle cx="1006.15" cy="313.308" r="0.678066" fill="white" fill-opacity="0.56"/>
<circle cx="950.545" cy="290.253" r="0.678066" fill="white" fill-opacity="0.56"/>
<circle cx="850.191" cy="429.935" r="0.678066" fill="white" fill-opacity="0.56"/>
<circle cx="760.687" cy="347.211" r="0.678066" fill="white" fill-opacity="0.56"/>
<circle cx="797.303" cy="288.897" r="0.678066" fill="white" fill-opacity="0.56"/>
<circle cx="939.697" cy="387.895" r="0.678066" fill="white" fill-opacity="0.56"/>
<circle cx="892.232" cy="515.371" r="0.678066" fill="white" fill-opacity="0.56"/>
<circle cx="770.18" cy="189.9" r="0.678066" fill="white" fill-opacity="0.56"/>
<circle cx="665.758" cy="151.928" r="0.678066" fill="white" fill-opacity="0.56"/>
<circle cx="903.08" cy="122.093" r="0.678066" fill="white" fill-opacity="0.56"/>
<circle cx="734.92" cy="90.9019" r="0.678066" fill="white" fill-opacity="0.56"/>
<circle cx="722.715" cy="288.897" r="0.678066" fill="white" fill-opacity="0.56"/>
<circle cx="642.703" cy="179.05" r="0.678066" fill="white" fill-opacity="0.56"/>
<circle cx="846.123" cy="141.079" r="0.678066" fill="white" fill-opacity="0.56"/>
<circle cx="889.519" cy="301.102" r="0.678066" fill="white" fill-opacity="0.56"/>
<circle cx="771.537" cy="264.487" r="0.678066" fill="white" fill-opacity="0.56"/>
<circle cx="816.287" cy="77.3405" r="0.678066" fill="white" fill-opacity="0.56"/>
<circle cx="1067.17" cy="89.5457" r="0.678066" fill="white" fill-opacity="0.56"/>
<circle cx="969.531" cy="191.256" r="0.678066" fill="white" fill-opacity="0.56"/>
<circle cx="798.658" cy="241.433" r="0.678066" fill="white" fill-opacity="0.56"/>
<circle cx="551.842" cy="99.0387" r="0.678066" fill="white" fill-opacity="0.56"/>
<circle cx="650.84" cy="75.9845" r="0.678066" fill="white" fill-opacity="0.56"/>
<circle cx="733.564" cy="195.324" r="0.678066" fill="white" fill-opacity="0.56"/>
<circle cx="542.349" cy="196.68" r="0.678066" fill="white" fill-opacity="0.56"/>
<circle cx="981.736" cy="97.6825" r="0.678066" fill="white" fill-opacity="0.56"/>
<circle cx="926.135" cy="74.6283" r="0.678066" fill="white" fill-opacity="0.56"/>
<circle cx="825.781" cy="214.31" r="0.678066" fill="white" fill-opacity="0.56"/>
<circle cx="736.275" cy="131.586" r="0.678066" fill="white" fill-opacity="0.56"/>
<circle cx="772.892" cy="73.2722" r="0.678066" fill="white" fill-opacity="0.56"/>
<circle cx="915.287" cy="172.27" r="0.678066" fill="white" fill-opacity="0.56"/>
<circle cx="867.822" cy="299.746" r="0.678066" fill="white" fill-opacity="0.56"/>
<circle cx="996.652" cy="416.374" r="0.678066" fill="white" fill-opacity="0.56"/>
<circle cx="892.23" cy="378.402" r="0.678066" fill="white" fill-opacity="0.56"/>
<circle cx="1129.55" cy="348.567" r="0.678066" fill="white" fill-opacity="0.56"/>
<circle cx="961.392" cy="317.376" r="0.678066" fill="white" fill-opacity="0.56"/>
<circle cx="949.187" cy="515.371" r="0.678066" fill="white" fill-opacity="0.56"/>
<circle cx="869.176" cy="405.525" r="0.678066" fill="white" fill-opacity="0.56"/>
<circle cx="1072.6" cy="367.553" r="0.678066" fill="white" fill-opacity="0.56"/>
<circle cx="1115.99" cy="527.576" r="0.678066" fill="white" fill-opacity="0.56"/>
<circle cx="998.01" cy="490.961" r="0.678066" fill="white" fill-opacity="0.56"/>
<circle cx="1042.76" cy="303.815" r="0.678066" fill="white" fill-opacity="0.56"/>
<circle cx="1293.64" cy="316.02" r="0.678066" fill="white" fill-opacity="0.56"/>
<circle cx="1196" cy="417.73" r="0.678066" fill="white" fill-opacity="0.56"/>
<circle cx="1025.13" cy="467.907" r="0.678066" fill="white" fill-opacity="0.56"/>
<circle cx="778.314" cy="325.513" r="0.678066" fill="white" fill-opacity="0.56"/>
<circle cx="877.312" cy="302.458" r="0.678066" fill="white" fill-opacity="0.56"/>
<circle cx="960.037" cy="421.798" r="0.678066" fill="white" fill-opacity="0.56"/>
<circle cx="768.822" cy="423.154" r="0.678066" fill="white" fill-opacity="0.56"/>
<circle cx="1208.21" cy="324.157" r="0.678066" fill="white" fill-opacity="0.56"/>
<circle cx="1152.61" cy="301.102" r="0.678066" fill="white" fill-opacity="0.56"/>
<circle cx="1052.25" cy="440.784" r="0.678066" fill="white" fill-opacity="0.56"/>
<circle cx="962.748" cy="358.06" r="0.678066" fill="white" fill-opacity="0.56"/>
<circle cx="999.365" cy="299.746" r="0.678066" fill="white" fill-opacity="0.56"/>
<circle cx="1141.76" cy="398.744" r="0.678066" fill="white" fill-opacity="0.56"/>
<circle cx="1094.29" cy="526.22" r="0.678066" fill="white" fill-opacity="0.56"/>
<circle cx="791.875" cy="265.843" r="0.678066" fill="white" fill-opacity="0.56"/>
<circle cx="687.453" cy="227.871" r="0.678066" fill="white" fill-opacity="0.56"/>
<circle cx="924.777" cy="198.036" r="0.678066" fill="white" fill-opacity="0.56"/>
<circle cx="756.615" cy="166.845" r="0.678066" fill="white" fill-opacity="0.56"/>
<circle cx="744.41" cy="364.841" r="0.678066" fill="white" fill-opacity="0.56"/>
<circle cx="664.398" cy="254.994" r="0.678066" fill="white" fill-opacity="0.56"/>
<circle cx="867.818" cy="217.022" r="0.678066" fill="white" fill-opacity="0.56"/>
<circle cx="911.215" cy="377.046" r="0.678066" fill="white" fill-opacity="0.56"/>
<circle cx="793.23" cy="340.43" r="0.678066" fill="white" fill-opacity="0.56"/>
<circle cx="837.984" cy="153.284" r="0.678066" fill="white" fill-opacity="0.56"/>
<circle cx="1088.87" cy="165.489" r="0.678066" fill="white" fill-opacity="0.56"/>
<circle cx="991.226" cy="267.199" r="0.678066" fill="white" fill-opacity="0.56"/>
<circle cx="820.353" cy="317.376" r="0.678066" fill="white" fill-opacity="0.56"/>
<circle cx="573.539" cy="174.982" r="0.678066" fill="white" fill-opacity="0.56"/>
<circle cx="672.535" cy="151.928" r="0.678066" fill="white" fill-opacity="0.56"/>
<circle cx="755.26" cy="271.268" r="0.678066" fill="white" fill-opacity="0.56"/>
<circle cx="564.045" cy="272.624" r="0.678066" fill="white" fill-opacity="0.56"/>
<circle cx="1003.43" cy="173.626" r="0.678066" fill="white" fill-opacity="0.56"/>
<circle cx="947.83" cy="150.572" r="0.678066" fill="white" fill-opacity="0.56"/>
<circle cx="847.476" cy="290.253" r="0.678066" fill="white" fill-opacity="0.56"/>
<circle cx="757.972" cy="207.529" r="0.678066" fill="white" fill-opacity="0.56"/>
<circle cx="794.586" cy="149.216" r="0.678066" fill="white" fill-opacity="0.56"/>
<circle cx="936.98" cy="248.213" r="0.678066" fill="white" fill-opacity="0.56"/>
<circle cx="889.515" cy="375.69" r="0.678066" fill="white" fill-opacity="0.56"/>
<circle cx="1307.9" cy="685.859" r="0.678066" fill="white" fill-opacity="0.56"/>
<circle cx="1203.48" cy="647.888" r="0.678066" fill="white" fill-opacity="0.56"/>
<circle cx="1272.64" cy="586.862" r="0.678066" fill="white" fill-opacity="0.56"/>
<circle cx="1260.44" cy="784.857" r="0.678066" fill="white" fill-opacity="0.56"/>
<circle cx="1180.42" cy="675.01" r="0.678066" fill="white" fill-opacity="0.56"/>
<circle cx="1383.84" cy="637.039" r="0.678066" fill="white" fill-opacity="0.56"/>
<circle cx="1427.24" cy="797.062" r="0.678066" fill="white" fill-opacity="0.56"/>
<circle cx="1309.26" cy="760.447" r="0.678066" fill="white" fill-opacity="0.56"/>
<circle cx="1354.01" cy="573.3" r="0.678066" fill="white" fill-opacity="0.56"/>
<circle cx="1336.38" cy="737.392" r="0.678066" fill="white" fill-opacity="0.56"/>
<circle cx="1089.56" cy="594.999" r="0.678066" fill="white" fill-opacity="0.56"/>
<circle cx="1188.56" cy="571.944" r="0.678066" fill="white" fill-opacity="0.56"/>
<circle cx="1271.29" cy="691.284" r="0.678066" fill="white" fill-opacity="0.56"/>
<circle cx="1080.07" cy="692.64" r="0.678066" fill="white" fill-opacity="0.56"/>
<circle cx="1363.5" cy="710.27" r="0.678066" fill="white" fill-opacity="0.56"/>
<circle cx="1274" cy="627.546" r="0.678066" fill="white" fill-opacity="0.56"/>
<circle cx="1310.61" cy="569.232" r="0.678066" fill="white" fill-opacity="0.56"/>
<circle cx="1405.54" cy="795.706" r="0.678066" fill="white" fill-opacity="0.56"/>
<circle cx="1184.49" cy="677.723" r="0.678066" fill="white" fill-opacity="0.56"/>
<circle cx="1080.07" cy="639.751" r="0.678066" fill="white" fill-opacity="0.56"/>
<circle cx="1317.39" cy="609.916" r="0.678066" fill="white" fill-opacity="0.56"/>
<circle cx="1149.23" cy="578.725" r="0.678066" fill="white" fill-opacity="0.56"/>
<circle cx="1137.03" cy="776.72" r="0.678066" fill="white" fill-opacity="0.56"/>
<circle cx="1057.01" cy="666.873" r="0.678066" fill="white" fill-opacity="0.56"/>
<circle cx="1260.43" cy="628.902" r="0.678066" fill="white" fill-opacity="0.56"/>
<circle cx="1303.83" cy="788.925" r="0.678066" fill="white" fill-opacity="0.56"/>
<circle cx="1185.85" cy="752.31" r="0.678066" fill="white" fill-opacity="0.56"/>
<circle cx="1230.6" cy="565.164" r="0.678066" fill="white" fill-opacity="0.56"/>
<circle cx="1383.84" cy="679.079" r="0.678066" fill="white" fill-opacity="0.56"/>
<circle cx="1212.97" cy="729.256" r="0.678066" fill="white" fill-opacity="0.56"/>
<circle cx="966.152" cy="586.862" r="0.678066" fill="white" fill-opacity="0.56"/>
<circle cx="1065.15" cy="563.807" r="0.678066" fill="white" fill-opacity="0.56"/>
<circle cx="1147.87" cy="683.147" r="0.678066" fill="white" fill-opacity="0.56"/>
<circle cx="956.66" cy="684.503" r="0.678066" fill="white" fill-opacity="0.56"/>
<circle cx="1396.05" cy="585.506" r="0.678066" fill="white" fill-opacity="0.56"/>
<circle cx="1340.45" cy="562.451" r="0.678066" fill="white" fill-opacity="0.56"/>
<circle cx="1240.09" cy="702.133" r="0.678066" fill="white" fill-opacity="0.56"/>
<circle cx="1150.59" cy="619.409" r="0.678066" fill="white" fill-opacity="0.56"/>
<circle cx="1187.2" cy="561.095" r="0.678066" fill="white" fill-opacity="0.56"/>
<circle cx="1329.6" cy="660.093" r="0.678066" fill="white" fill-opacity="0.56"/>
<circle cx="1282.13" cy="787.569" r="0.678066" fill="white" fill-opacity="0.56"/>
<circle cx="1431.31" cy="882.499" r="0.678066" fill="white" fill-opacity="0.56"/>
<circle cx="1340.45" cy="802.487" r="0.678066" fill="white" fill-opacity="0.56"/>
<circle cx="1439.44" cy="779.433" r="0.678066" fill="white" fill-opacity="0.56"/>
<circle cx="1330.95" cy="900.128" r="0.678066" fill="white" fill-opacity="0.56"/>
<circle cx="1394.69" cy="571.944" r="0.678066" fill="white" fill-opacity="0.56"/>
<circle cx="1385.2" cy="669.586" r="0.678066" fill="white" fill-opacity="0.56"/>
<circle cx="1105.84" cy="870.293" r="0.678066" fill="white" fill-opacity="0.56"/>
<circle cx="1187.2" cy="856.732" r="0.678066" fill="white" fill-opacity="0.56"/>
<circle cx="1438.09" cy="868.937" r="0.678066" fill="white" fill-opacity="0.56"/>
<circle cx="922.76" cy="878.43" r="0.678066" fill="white" fill-opacity="0.56"/>
<circle cx="1021.76" cy="855.376" r="0.678066" fill="white" fill-opacity="0.56"/>
<circle cx="1352.65" cy="877.074" r="0.678066" fill="white" fill-opacity="0.56"/>
<circle cx="1297.05" cy="854.02" r="0.678066" fill="white" fill-opacity="0.56"/>
<circle cx="1143.81" cy="852.664" r="0.678066" fill="white" fill-opacity="0.56"/>
<circle cx="1116.69" cy="753.666" r="0.678066" fill="white" fill-opacity="0.56"/>
<circle cx="1012.26" cy="715.694" r="0.678066" fill="white" fill-opacity="0.56"/>
<circle cx="1249.59" cy="685.859" r="0.678066" fill="white" fill-opacity="0.56"/>
<circle cx="1081.43" cy="654.668" r="0.678066" fill="white" fill-opacity="0.56"/>
<circle cx="1069.22" cy="852.664" r="0.678066" fill="white" fill-opacity="0.56"/>
<circle cx="989.209" cy="742.817" r="0.678066" fill="white" fill-opacity="0.56"/>
<circle cx="1192.63" cy="704.845" r="0.678066" fill="white" fill-opacity="0.56"/>
<circle cx="1236.03" cy="864.869" r="0.678066" fill="white" fill-opacity="0.56"/>
<circle cx="1118.04" cy="828.253" r="0.678066" fill="white" fill-opacity="0.56"/>
<circle cx="1162.79" cy="641.107" r="0.678066" fill="white" fill-opacity="0.56"/>
<circle cx="1413.68" cy="653.312" r="0.678066" fill="white" fill-opacity="0.56"/>
<circle cx="1316.04" cy="755.022" r="0.678066" fill="white" fill-opacity="0.56"/>
<circle cx="1145.16" cy="805.199" r="0.678066" fill="white" fill-opacity="0.56"/>
<circle cx="898.349" cy="662.805" r="0.678066" fill="white" fill-opacity="0.56"/>
<circle cx="997.346" cy="639.751" r="0.678066" fill="white" fill-opacity="0.56"/>
<circle cx="1080.07" cy="759.091" r="0.678066" fill="white" fill-opacity="0.56"/>
<circle cx="888.855" cy="760.447" r="0.678066" fill="white" fill-opacity="0.56"/>
<circle cx="1328.24" cy="661.449" r="0.678066" fill="white" fill-opacity="0.56"/>
<circle cx="1272.64" cy="638.395" r="0.678066" fill="white" fill-opacity="0.56"/>
<circle cx="1172.29" cy="778.076" r="0.678066" fill="white" fill-opacity="0.56"/>
<circle cx="1082.78" cy="695.352" r="0.678066" fill="white" fill-opacity="0.56"/>
<circle cx="1119.4" cy="637.039" r="0.678066" fill="white" fill-opacity="0.56"/>
<circle cx="1261.79" cy="736.036" r="0.678066" fill="white" fill-opacity="0.56"/>
<circle cx="1214.33" cy="863.513" r="0.678066" fill="white" fill-opacity="0.56"/>
<circle cx="1307.9" cy="881.142" r="0.678066" fill="white" fill-opacity="0.56"/>
<circle cx="1389.27" cy="867.581" r="0.678066" fill="white" fill-opacity="0.56"/>
<circle cx="1124.82" cy="889.279" r="0.678066" fill="white" fill-opacity="0.56"/>
<circle cx="1223.82" cy="866.225" r="0.678066" fill="white" fill-opacity="0.56"/>
<circle cx="1345.87" cy="863.513" r="0.678066" fill="white" fill-opacity="0.56"/>
<circle cx="1138.38" cy="829.609" r="0.678066" fill="white" fill-opacity="0.56"/>
<circle cx="1033.96" cy="791.638" r="0.678066" fill="white" fill-opacity="0.56"/>
<circle cx="1271.28" cy="761.803" r="0.678066" fill="white" fill-opacity="0.56"/>
<circle cx="1103.12" cy="730.612" r="0.678066" fill="white" fill-opacity="0.56"/>
<circle cx="1010.9" cy="818.76" r="0.678066" fill="white" fill-opacity="0.56"/>
<circle cx="1214.32" cy="780.789" r="0.678066" fill="white" fill-opacity="0.56"/>
<circle cx="1184.49" cy="717.05" r="0.678066" fill="white" fill-opacity="0.56"/>
<circle cx="1435.37" cy="729.256" r="0.678066" fill="white" fill-opacity="0.56"/>
<circle cx="1337.73" cy="830.966" r="0.678066" fill="white" fill-opacity="0.56"/>
<circle cx="1166.86" cy="881.142" r="0.678066" fill="white" fill-opacity="0.56"/>
<circle cx="920.043" cy="738.748" r="0.678066" fill="white" fill-opacity="0.56"/>
<circle cx="1019.04" cy="715.694" r="0.678066" fill="white" fill-opacity="0.56"/>
<circle cx="1101.77" cy="835.034" r="0.678066" fill="white" fill-opacity="0.56"/>
<circle cx="910.551" cy="836.39" r="0.678066" fill="white" fill-opacity="0.56"/>
<circle cx="1349.94" cy="737.392" r="0.678066" fill="white" fill-opacity="0.56"/>
<circle cx="1294.34" cy="714.338" r="0.678066" fill="white" fill-opacity="0.56"/>
<circle cx="1193.98" cy="854.02" r="0.678066" fill="white" fill-opacity="0.56"/>
<circle cx="1104.48" cy="771.296" r="0.678066" fill="white" fill-opacity="0.56"/>
<circle cx="1141.09" cy="712.982" r="0.678066" fill="white" fill-opacity="0.56"/>
<circle cx="1283.49" cy="811.98" r="0.678066" fill="white" fill-opacity="0.56"/>
<circle cx="25.492" cy="122.093" r="0.678066" fill="white" fill-opacity="0.56"/>
<circle cx="158.392" cy="54.2862" r="0.678066" fill="white" fill-opacity="0.56"/>
<circle cx="101.435" cy="73.2722" r="0.678066" fill="white" fill-opacity="0.56"/>
<circle cx="144.832" cy="233.296" r="0.678066" fill="white" fill-opacity="0.56"/>
<circle cx="26.8495" cy="196.68" r="0.678066" fill="white" fill-opacity="0.56"/>
<circle cx="71.5994" cy="9.5339" r="0.678066" fill="white" fill-opacity="0.56"/>
<circle cx="322.484" cy="21.7391" r="0.678066" fill="white" fill-opacity="0.56"/>
<circle cx="224.844" cy="123.449" r="0.678066" fill="white" fill-opacity="0.56"/>
<circle cx="53.9705" cy="173.626" r="0.678066" fill="white" fill-opacity="0.56"/>
<circle cx="237.049" cy="29.8759" r="0.678066" fill="white" fill-opacity="0.56"/>
<circle cx="181.447" cy="6.82168" r="0.678066" fill="white" fill-opacity="0.56"/>
<circle cx="81.0936" cy="146.503" r="0.678066" fill="white" fill-opacity="0.56"/>
<circle cx="28.2049" cy="5.46554" r="0.678066" fill="white" fill-opacity="0.56"/>
<circle cx="170.599" cy="104.463" r="0.678066" fill="white" fill-opacity="0.56"/>
<circle cx="123.135" cy="231.94" r="0.678066" fill="white" fill-opacity="0.56"/>
<circle cx="34.9862" cy="46.1494" r="0.678066" fill="white" fill-opacity="0.56"/>
<circle cx="21.4256" cy="225.159" r="0.678066" fill="white" fill-opacity="0.56"/>
<circle cx="199.078" cy="13.6023" r="0.678066" fill="white" fill-opacity="0.56"/>
<circle cx="101.437" cy="115.312" r="0.678066" fill="white" fill-opacity="0.56"/>
<circle cx="113.642" cy="21.7391" r="0.678066" fill="white" fill-opacity="0.56"/>
<circle cx="47.1912" cy="96.3263" r="0.678066" fill="white" fill-opacity="0.56"/>
<circle cx="-0.273594" cy="223.803" r="0.678066" fill="white" fill-opacity="0.56"/>
<circle cx="276.375" cy="329.581" r="0.678066" fill="white" fill-opacity="0.56"/>
<circle cx="171.953" cy="291.61" r="0.678066" fill="white" fill-opacity="0.56"/>
<circle cx="409.275" cy="261.775" r="0.678066" fill="white" fill-opacity="0.56"/>
<circle cx="241.115" cy="230.584" r="0.678066" fill="white" fill-opacity="0.56"/>
<circle cx="228.91" cy="428.579" r="0.678066" fill="white" fill-opacity="0.56"/>
<circle cx="148.898" cy="318.732" r="0.678066" fill="white" fill-opacity="0.56"/>
<circle cx="352.318" cy="280.76" r="0.678066" fill="white" fill-opacity="0.56"/>
<circle cx="395.715" cy="440.784" r="0.678066" fill="white" fill-opacity="0.56"/>
<circle cx="277.73" cy="404.168" r="0.678066" fill="white" fill-opacity="0.56"/>
<circle cx="322.484" cy="217.022" r="0.678066" fill="white" fill-opacity="0.56"/>
<circle cx="573.367" cy="229.227" r="0.678066" fill="white" fill-opacity="0.56"/>
<circle cx="475.726" cy="330.937" r="0.678066" fill="white" fill-opacity="0.56"/>
<circle cx="304.853" cy="381.114" r="0.678066" fill="white" fill-opacity="0.56"/>
<circle cx="58.037" cy="238.72" r="0.678066" fill="white" fill-opacity="0.56"/>
<circle cx="157.035" cy="215.666" r="0.678066" fill="white" fill-opacity="0.56"/>
<circle cx="239.76" cy="335.006" r="0.678066" fill="white" fill-opacity="0.56"/>
<circle cx="48.5448" cy="336.362" r="0.678066" fill="white" fill-opacity="0.56"/>
<circle cx="487.931" cy="237.364" r="0.678066" fill="white" fill-opacity="0.56"/>
<circle cx="432.33" cy="214.31" r="0.678066" fill="white" fill-opacity="0.56"/>
<circle cx="331.976" cy="353.992" r="0.678066" fill="white" fill-opacity="0.56"/>
<circle cx="242.473" cy="271.268" r="0.678066" fill="white" fill-opacity="0.56"/>
<circle cx="279.088" cy="212.954" r="0.678066" fill="white" fill-opacity="0.56"/>
<circle cx="421.48" cy="311.951" r="0.678066" fill="white" fill-opacity="0.56"/>
<circle cx="374.015" cy="439.428" r="0.678066" fill="white" fill-opacity="0.56"/>
<circle cx="330.621" cy="99.0387" r="0.678066" fill="white" fill-opacity="0.56"/>
<circle cx="226.199" cy="61.067" r="0.678066" fill="white" fill-opacity="0.56"/>
<circle cx="463.521" cy="31.2321" r="0.678066" fill="white" fill-opacity="0.56"/>
<circle cx="295.361" cy="0.0410421" r="0.678066" fill="white" fill-opacity="0.56"/>
<circle cx="283.156" cy="198.036" r="0.678066" fill="white" fill-opacity="0.56"/>
<circle cx="203.144" cy="88.1897" r="0.678066" fill="white" fill-opacity="0.56"/>
<circle cx="406.564" cy="50.2179" r="0.678066" fill="white" fill-opacity="0.56"/>
<circle cx="449.961" cy="210.242" r="0.678066" fill="white" fill-opacity="0.56"/>
<circle cx="331.976" cy="173.626" r="0.678066" fill="white" fill-opacity="0.56"/>
<circle cx="529.972" cy="100.395" r="0.678066" fill="white" fill-opacity="0.56"/>
<circle cx="359.099" cy="150.572" r="0.678066" fill="white" fill-opacity="0.56"/>
<circle cx="112.283" cy="8.17788" r="0.678066" fill="white" fill-opacity="0.56"/>
<circle cx="294.006" cy="104.463" r="0.678066" fill="white" fill-opacity="0.56"/>
<circle cx="102.791" cy="105.819" r="0.678066" fill="white" fill-opacity="0.56"/>
<circle cx="542.178" cy="6.82174" r="0.678066" fill="white" fill-opacity="0.56"/>
<circle cx="386.223" cy="123.449" r="0.678066" fill="white" fill-opacity="0.56"/>
<circle cx="296.719" cy="40.725" r="0.678066" fill="white" fill-opacity="0.56"/>
<circle cx="475.726" cy="81.409" r="0.678066" fill="white" fill-opacity="0.56"/>
<circle cx="428.264" cy="208.885" r="0.678066" fill="white" fill-opacity="0.56"/>
<circle cx="155.68" cy="305.171" r="0.678066" fill="white" fill-opacity="0.56"/>
<circle cx="58.0389" cy="406.881" r="0.678066" fill="white" fill-opacity="0.56"/>
<circle cx="70.244" cy="313.308" r="0.678066" fill="white" fill-opacity="0.56"/>
<circle cx="14.6424" cy="290.253" r="0.678066" fill="white" fill-opacity="0.56"/>
<circle cx="3.79477" cy="387.895" r="0.678066" fill="white" fill-opacity="0.56"/>
<circle cx="131.269" cy="89.5457" r="0.678066" fill="white" fill-opacity="0.56"/>
<circle cx="33.6287" cy="191.256" r="0.678066" fill="white" fill-opacity="0.56"/>
<circle cx="45.8338" cy="97.6825" r="0.678066" fill="white" fill-opacity="0.56"/>
<circle cx="60.7498" cy="416.374" r="0.678066" fill="white" fill-opacity="0.56"/>
<circle cx="193.65" cy="348.567" r="0.678066" fill="white" fill-opacity="0.56"/>
<circle cx="25.4901" cy="317.376" r="0.678066" fill="white" fill-opacity="0.56"/>
<circle cx="13.285" cy="515.371" r="0.678066" fill="white" fill-opacity="0.56"/>
<circle cx="136.693" cy="367.553" r="0.678066" fill="white" fill-opacity="0.56"/>
<circle cx="180.09" cy="527.576" r="0.678066" fill="white" fill-opacity="0.56"/>
<circle cx="62.1053" cy="490.961" r="0.678066" fill="white" fill-opacity="0.56"/>
<circle cx="106.859" cy="303.815" r="0.678066" fill="white" fill-opacity="0.56"/>
<circle cx="357.742" cy="316.02" r="0.678066" fill="white" fill-opacity="0.56"/>
<circle cx="260.101" cy="417.73" r="0.678066" fill="white" fill-opacity="0.56"/>
<circle cx="89.2284" cy="467.907" r="0.678066" fill="white" fill-opacity="0.56"/>
<circle cx="24.1346" cy="421.798" r="0.678066" fill="white" fill-opacity="0.56"/>
<circle cx="272.306" cy="324.157" r="0.678066" fill="white" fill-opacity="0.56"/>
<circle cx="216.705" cy="301.102" r="0.678066" fill="white" fill-opacity="0.56"/>
<circle cx="116.351" cy="440.784" r="0.678066" fill="white" fill-opacity="0.56"/>
<circle cx="26.8475" cy="358.06" r="0.678066" fill="white" fill-opacity="0.56"/>
<circle cx="63.4627" cy="299.746" r="0.678066" fill="white" fill-opacity="0.56"/>
<circle cx="205.855" cy="398.744" r="0.678066" fill="white" fill-opacity="0.56"/>
<circle cx="158.392" cy="526.22" r="0.678066" fill="white" fill-opacity="0.56"/>
<circle cx="152.969" cy="165.489" r="0.678066" fill="white" fill-opacity="0.56"/>
<circle cx="55.328" cy="267.199" r="0.678066" fill="white" fill-opacity="0.56"/>
<circle cx="67.533" cy="173.626" r="0.678066" fill="white" fill-opacity="0.56"/>
<circle cx="11.9315" cy="150.572" r="0.678066" fill="white" fill-opacity="0.56"/>
<circle cx="1.08187" cy="248.213" r="0.678066" fill="white" fill-opacity="0.56"/>
<circle cx="371.992" cy="685.859" r="0.678066" fill="white" fill-opacity="0.56"/>
<circle cx="267.57" cy="647.888" r="0.678066" fill="white" fill-opacity="0.56"/>
<circle cx="504.892" cy="618.053" r="0.678066" fill="white" fill-opacity="0.56"/>
<circle cx="336.732" cy="586.862" r="0.678066" fill="white" fill-opacity="0.56"/>
<circle cx="324.527" cy="784.857" r="0.678066" fill="white" fill-opacity="0.56"/>
<circle cx="244.515" cy="675.01" r="0.678066" fill="white" fill-opacity="0.56"/>
<circle cx="447.935" cy="637.039" r="0.678066" fill="white" fill-opacity="0.56"/>
<circle cx="491.332" cy="797.062" r="0.678066" fill="white" fill-opacity="0.56"/>
<circle cx="373.349" cy="760.447" r="0.678066" fill="white" fill-opacity="0.56"/>
<circle cx="418.099" cy="573.3" r="0.678066" fill="white" fill-opacity="0.56"/>
<circle cx="668.984" cy="585.506" r="0.678066" fill="white" fill-opacity="0.56"/>
<circle cx="571.344" cy="687.216" r="0.678066" fill="white" fill-opacity="0.56"/>
<circle cx="400.471" cy="737.392" r="0.678066" fill="white" fill-opacity="0.56"/>
<circle cx="153.654" cy="594.999" r="0.678066" fill="white" fill-opacity="0.56"/>
<circle cx="252.652" cy="571.944" r="0.678066" fill="white" fill-opacity="0.56"/>
<circle cx="335.377" cy="691.284" r="0.678066" fill="white" fill-opacity="0.56"/>
<circle cx="144.162" cy="692.64" r="0.678066" fill="white" fill-opacity="0.56"/>
<circle cx="583.549" cy="593.642" r="0.678066" fill="white" fill-opacity="0.56"/>
<circle cx="527.947" cy="570.588" r="0.678066" fill="white" fill-opacity="0.56"/>
<circle cx="427.594" cy="710.27" r="0.678066" fill="white" fill-opacity="0.56"/>
<circle cx="338.088" cy="627.546" r="0.678066" fill="white" fill-opacity="0.56"/>
<circle cx="374.705" cy="569.232" r="0.678066" fill="white" fill-opacity="0.56"/>
<circle cx="517.099" cy="668.23" r="0.678066" fill="white" fill-opacity="0.56"/>
<circle cx="469.635" cy="795.706" r="0.678066" fill="white" fill-opacity="0.56"/>
<circle cx="248.586" cy="677.723" r="0.678066" fill="white" fill-opacity="0.56"/>
<circle cx="144.164" cy="639.751" r="0.678066" fill="white" fill-opacity="0.56"/>
<circle cx="381.488" cy="609.916" r="0.678066" fill="white" fill-opacity="0.56"/>
<circle cx="213.326" cy="578.725" r="0.678066" fill="white" fill-opacity="0.56"/>
<circle cx="201.121" cy="776.72" r="0.678066" fill="white" fill-opacity="0.56"/>
<circle cx="121.109" cy="666.874" r="0.678066" fill="white" fill-opacity="0.56"/>
<circle cx="324.529" cy="628.902" r="0.678066" fill="white" fill-opacity="0.56"/>
<circle cx="367.926" cy="788.925" r="0.678066" fill="white" fill-opacity="0.56"/>
<circle cx="249.941" cy="752.31" r="0.678066" fill="white" fill-opacity="0.56"/>
<circle cx="294.695" cy="565.164" r="0.678066" fill="white" fill-opacity="0.56"/>
<circle cx="545.578" cy="577.369" r="0.678066" fill="white" fill-opacity="0.56"/>
<circle cx="447.937" cy="679.079" r="0.678066" fill="white" fill-opacity="0.56"/>
<circle cx="277.064" cy="729.255" r="0.678066" fill="white" fill-opacity="0.56"/>
<circle cx="30.2498" cy="586.862" r="0.678066" fill="white" fill-opacity="0.56"/>
<circle cx="129.246" cy="563.807" r="0.678066" fill="white" fill-opacity="0.56"/>
<circle cx="211.971" cy="683.147" r="0.678066" fill="white" fill-opacity="0.56"/>
<circle cx="20.7557" cy="684.503" r="0.678066" fill="white" fill-opacity="0.56"/>
<circle cx="460.142" cy="585.506" r="0.678066" fill="white" fill-opacity="0.56"/>
<circle cx="404.541" cy="562.451" r="0.678066" fill="white" fill-opacity="0.56"/>
<circle cx="304.187" cy="702.133" r="0.678066" fill="white" fill-opacity="0.56"/>
<circle cx="214.683" cy="619.409" r="0.678066" fill="white" fill-opacity="0.56"/>
<circle cx="251.299" cy="561.095" r="0.678066" fill="white" fill-opacity="0.56"/>
<circle cx="393.691" cy="660.093" r="0.678066" fill="white" fill-opacity="0.56"/>
<circle cx="346.226" cy="787.569" r="0.678066" fill="white" fill-opacity="0.56"/>
<circle cx="622.875" cy="893.348" r="0.678066" fill="white" fill-opacity="0.56"/>
<circle cx="518.453" cy="855.376" r="0.678066" fill="white" fill-opacity="0.56"/>
<circle cx="755.775" cy="825.541" r="0.678066" fill="white" fill-opacity="0.56"/>
<circle cx="587.615" cy="794.35" r="0.678066" fill="white" fill-opacity="0.56"/>
<circle cx="495.398" cy="882.499" r="0.678066" fill="white" fill-opacity="0.56"/>
<circle cx="698.818" cy="844.527" r="0.678066" fill="white" fill-opacity="0.56"/>
<circle cx="668.982" cy="780.789" r="0.678066" fill="white" fill-opacity="0.56"/>
<circle cx="919.867" cy="792.994" r="0.678066" fill="white" fill-opacity="0.56"/>
<circle cx="822.226" cy="894.704" r="0.678066" fill="white" fill-opacity="0.56"/>
<circle cx="404.537" cy="802.487" r="0.678066" fill="white" fill-opacity="0.56"/>
<circle cx="503.535" cy="779.433" r="0.678066" fill="white" fill-opacity="0.56"/>
<circle cx="586.26" cy="898.772" r="0.678066" fill="white" fill-opacity="0.56"/>
<circle cx="395.045" cy="900.128" r="0.678066" fill="white" fill-opacity="0.56"/>
<circle cx="834.431" cy="801.131" r="0.678066" fill="white" fill-opacity="0.56"/>
<circle cx="778.83" cy="778.076" r="0.678066" fill="white" fill-opacity="0.56"/>
<circle cx="588.972" cy="835.034" r="0.678066" fill="white" fill-opacity="0.56"/>
<circle cx="625.588" cy="776.72" r="0.678066" fill="white" fill-opacity="0.56"/>
<circle cx="767.982" cy="875.718" r="0.678066" fill="white" fill-opacity="0.56"/>
<circle cx="677.121" cy="662.805" r="0.678066" fill="white" fill-opacity="0.56"/>
<circle cx="572.699" cy="624.833" r="0.678066" fill="white" fill-opacity="0.56"/>
<circle cx="810.021" cy="594.999" r="0.678066" fill="white" fill-opacity="0.56"/>
<circle cx="641.861" cy="563.807" r="0.678066" fill="white" fill-opacity="0.56"/>
<circle cx="629.656" cy="761.803" r="0.678066" fill="white" fill-opacity="0.56"/>
<circle cx="549.644" cy="651.956" r="0.678066" fill="white" fill-opacity="0.56"/>
<circle cx="753.064" cy="613.984" r="0.678066" fill="white" fill-opacity="0.56"/>
<circle cx="796.461" cy="774.008" r="0.678066" fill="white" fill-opacity="0.56"/>
<circle cx="678.478" cy="737.392" r="0.678066" fill="white" fill-opacity="0.56"/>
<circle cx="723.228" cy="550.246" r="0.678066" fill="white" fill-opacity="0.56"/>
<circle cx="974.113" cy="562.451" r="0.678066" fill="white" fill-opacity="0.56"/>
<circle cx="876.472" cy="664.161" r="0.678066" fill="white" fill-opacity="0.56"/>
<circle cx="705.599" cy="714.338" r="0.678066" fill="white" fill-opacity="0.56"/>
<circle cx="458.783" cy="571.944" r="0.678066" fill="white" fill-opacity="0.56"/>
<circle cx="557.781" cy="548.89" r="0.678066" fill="white" fill-opacity="0.56"/>
<circle cx="640.506" cy="668.23" r="0.678066" fill="white" fill-opacity="0.56"/>
<circle cx="449.291" cy="669.586" r="0.678066" fill="white" fill-opacity="0.56"/>
<circle cx="888.678" cy="570.588" r="0.678066" fill="white" fill-opacity="0.56"/>
<circle cx="833.076" cy="547.534" r="0.678066" fill="white" fill-opacity="0.56"/>
<circle cx="732.722" cy="687.216" r="0.678066" fill="white" fill-opacity="0.56"/>
<circle cx="643.217" cy="604.492" r="0.678066" fill="white" fill-opacity="0.56"/>
<circle cx="679.834" cy="546.178" r="0.678066" fill="white" fill-opacity="0.56"/>
<circle cx="822.228" cy="645.175" r="0.678066" fill="white" fill-opacity="0.56"/>
<circle cx="774.763" cy="772.652" r="0.678066" fill="white" fill-opacity="0.56"/>
<circle cx="169.928" cy="870.293" r="0.678066" fill="white" fill-opacity="0.56"/>
<circle cx="251.295" cy="856.732" r="0.678066" fill="white" fill-opacity="0.56"/>
<circle cx="502.18" cy="868.937" r="0.678066" fill="white" fill-opacity="0.56"/>
<circle cx="85.8475" cy="855.376" r="0.678066" fill="white" fill-opacity="0.56"/>
<circle cx="416.744" cy="877.074" r="0.678066" fill="white" fill-opacity="0.56"/>
<circle cx="361.142" cy="854.02" r="0.678066" fill="white" fill-opacity="0.56"/>
<circle cx="207.9" cy="852.664" r="0.678066" fill="white" fill-opacity="0.56"/>
<circle cx="180.777" cy="753.666" r="0.678066" fill="white" fill-opacity="0.56"/>
<circle cx="76.3553" cy="715.694" r="0.678066" fill="white" fill-opacity="0.56"/>
<circle cx="313.678" cy="685.859" r="0.678066" fill="white" fill-opacity="0.56"/>
<circle cx="145.517" cy="654.668" r="0.678066" fill="white" fill-opacity="0.56"/>
<circle cx="133.312" cy="852.664" r="0.678066" fill="white" fill-opacity="0.56"/>
<circle cx="53.3006" cy="742.817" r="0.678066" fill="white" fill-opacity="0.56"/>
<circle cx="256.721" cy="704.845" r="0.678066" fill="white" fill-opacity="0.56"/>
<circle cx="300.117" cy="864.869" r="0.678066" fill="white" fill-opacity="0.56"/>
<circle cx="182.135" cy="828.253" r="0.678066" fill="white" fill-opacity="0.56"/>
<circle cx="226.885" cy="641.107" r="0.678066" fill="white" fill-opacity="0.56"/>
<circle cx="477.769" cy="653.312" r="0.678066" fill="white" fill-opacity="0.56"/>
<circle cx="380.129" cy="755.022" r="0.678066" fill="white" fill-opacity="0.56"/>
<circle cx="209.256" cy="805.199" r="0.678066" fill="white" fill-opacity="0.56"/>
<circle cx="61.4373" cy="639.751" r="0.678066" fill="white" fill-opacity="0.56"/>
<circle cx="144.162" cy="759.091" r="0.678066" fill="white" fill-opacity="0.56"/>
<circle cx="392.334" cy="661.449" r="0.678066" fill="white" fill-opacity="0.56"/>
<circle cx="336.732" cy="638.395" r="0.678066" fill="white" fill-opacity="0.56"/>
<circle cx="236.379" cy="778.076" r="0.678066" fill="white" fill-opacity="0.56"/>
<circle cx="146.873" cy="695.352" r="0.678066" fill="white" fill-opacity="0.56"/>
<circle cx="183.49" cy="637.039" r="0.678066" fill="white" fill-opacity="0.56"/>
<circle cx="325.885" cy="736.036" r="0.678066" fill="white" fill-opacity="0.56"/>
<circle cx="278.42" cy="863.513" r="0.678066" fill="white" fill-opacity="0.56"/>
<circle cx="371.994" cy="881.142" r="0.678066" fill="white" fill-opacity="0.56"/>
<circle cx="453.363" cy="867.581" r="0.678066" fill="white" fill-opacity="0.56"/>
<circle cx="704.246" cy="879.786" r="0.678066" fill="white" fill-opacity="0.56"/>
<circle cx="188.918" cy="889.279" r="0.678066" fill="white" fill-opacity="0.56"/>
<circle cx="287.914" cy="866.225" r="0.678066" fill="white" fill-opacity="0.56"/>
<circle cx="618.81" cy="887.923" r="0.678066" fill="white" fill-opacity="0.56"/>
<circle cx="563.209" cy="864.869" r="0.678066" fill="white" fill-opacity="0.56"/>
<circle cx="409.967" cy="863.513" r="0.678066" fill="white" fill-opacity="0.56"/>
<circle cx="202.476" cy="829.609" r="0.678066" fill="white" fill-opacity="0.56"/>
<circle cx="98.0545" cy="791.638" r="0.678066" fill="white" fill-opacity="0.56"/>
<circle cx="335.379" cy="761.803" r="0.678066" fill="white" fill-opacity="0.56"/>
<circle cx="167.217" cy="730.612" r="0.678066" fill="white" fill-opacity="0.56"/>
<circle cx="74.9998" cy="818.76" r="0.678066" fill="white" fill-opacity="0.56"/>
<circle cx="278.42" cy="780.789" r="0.678066" fill="white" fill-opacity="0.56"/>
<circle cx="248.586" cy="717.05" r="0.678066" fill="white" fill-opacity="0.56"/>
<circle cx="499.469" cy="729.256" r="0.678066" fill="white" fill-opacity="0.56"/>
<circle cx="401.828" cy="830.966" r="0.678066" fill="white" fill-opacity="0.56"/>
<circle cx="230.955" cy="881.142" r="0.678066" fill="white" fill-opacity="0.56"/>
<circle cx="83.1366" cy="715.694" r="0.678066" fill="white" fill-opacity="0.56"/>
<circle cx="165.861" cy="835.034" r="0.678066" fill="white" fill-opacity="0.56"/>
<circle cx="414.033" cy="737.392" r="0.678066" fill="white" fill-opacity="0.56"/>
<circle cx="358.431" cy="714.338" r="0.678066" fill="white" fill-opacity="0.56"/>
<circle cx="258.078" cy="854.02" r="0.678066" fill="white" fill-opacity="0.56"/>
<circle cx="168.574" cy="771.296" r="0.678066" fill="white" fill-opacity="0.56"/>
<circle cx="205.189" cy="712.982" r="0.678066" fill="white" fill-opacity="0.56"/>
<circle cx="347.582" cy="811.98" r="0.678066" fill="white" fill-opacity="0.56"/>
<circle cx="82.6268" cy="54.2863" r="0.678066" fill="white" fill-opacity="0.56"/>
<circle cx="25.6678" cy="73.2722" r="0.678066" fill="white" fill-opacity="0.56"/>
<circle cx="69.0643" cy="233.296" r="0.678066" fill="white" fill-opacity="0.56"/>
<circle cx="246.717" cy="21.7391" r="0.678066" fill="white" fill-opacity="0.56"/>
<circle cx="149.076" cy="123.449" r="0.678066" fill="white" fill-opacity="0.56"/>
<circle cx="161.281" cy="29.8759" r="0.678066" fill="white" fill-opacity="0.56"/>
<circle cx="105.68" cy="6.82168" r="0.678066" fill="white" fill-opacity="0.56"/>
<circle cx="5.32602" cy="146.503" r="0.678066" fill="white" fill-opacity="0.56"/>
<circle cx="94.8299" cy="104.463" r="0.678066" fill="white" fill-opacity="0.56"/>
<circle cx="47.367" cy="231.94" r="0.678066" fill="white" fill-opacity="0.56"/>
<circle cx="123.306" cy="13.6023" r="0.678066" fill="white" fill-opacity="0.56"/>
<circle cx="25.6654" cy="115.312" r="0.678066" fill="white" fill-opacity="0.56"/>
<circle cx="37.8704" cy="21.739" r="0.678066" fill="white" fill-opacity="0.56"/>
<circle cx="200.607" cy="329.581" r="0.678066" fill="white" fill-opacity="0.56"/>
<circle cx="96.1854" cy="291.609" r="0.678066" fill="white" fill-opacity="0.56"/>
<circle cx="333.508" cy="261.775" r="0.678066" fill="white" fill-opacity="0.56"/>
<circle cx="165.348" cy="230.584" r="0.678066" fill="white" fill-opacity="0.56"/>
<circle cx="153.142" cy="428.579" r="0.678066" fill="white" fill-opacity="0.56"/>
<circle cx="73.1307" cy="318.732" r="0.678066" fill="white" fill-opacity="0.56"/>
<circle cx="276.551" cy="280.76" r="0.678066" fill="white" fill-opacity="0.56"/>
<circle cx="319.947" cy="440.784" r="0.678066" fill="white" fill-opacity="0.56"/>
<circle cx="201.965" cy="404.168" r="0.678066" fill="white" fill-opacity="0.56"/>
<circle cx="246.715" cy="217.022" r="0.678066" fill="white" fill-opacity="0.56"/>
<circle cx="497.599" cy="229.227" r="0.678066" fill="white" fill-opacity="0.56"/>
<circle cx="399.959" cy="330.937" r="0.678066" fill="white" fill-opacity="0.56"/>
<circle cx="229.086" cy="381.114" r="0.678066" fill="white" fill-opacity="0.56"/>
<circle cx="81.2674" cy="215.666" r="0.678066" fill="white" fill-opacity="0.56"/>
<circle cx="163.992" cy="335.006" r="0.678066" fill="white" fill-opacity="0.56"/>
<circle cx="412.164" cy="237.364" r="0.678066" fill="white" fill-opacity="0.56"/>
<circle cx="356.562" cy="214.31" r="0.678066" fill="white" fill-opacity="0.56"/>
<circle cx="256.209" cy="353.992" r="0.678066" fill="white" fill-opacity="0.56"/>
<circle cx="166.703" cy="271.267" r="0.678066" fill="white" fill-opacity="0.56"/>
<circle cx="203.32" cy="212.954" r="0.678066" fill="white" fill-opacity="0.56"/>
<circle cx="345.713" cy="311.951" r="0.678066" fill="white" fill-opacity="0.56"/>
<circle cx="298.25" cy="439.428" r="0.678066" fill="white" fill-opacity="0.56"/>
<circle cx="254.853" cy="99.0387" r="0.678066" fill="white" fill-opacity="0.56"/>
<circle cx="150.431" cy="61.067" r="0.678066" fill="white" fill-opacity="0.56"/>
<circle cx="387.754" cy="31.2321" r="0.678066" fill="white" fill-opacity="0.56"/>
<circle cx="219.594" cy="0.0410421" r="0.678066" fill="white" fill-opacity="0.56"/>
<circle cx="207.389" cy="198.036" r="0.678066" fill="white" fill-opacity="0.56"/>
<circle cx="127.377" cy="88.1897" r="0.678066" fill="white" fill-opacity="0.56"/>
<circle cx="330.797" cy="50.2179" r="0.678066" fill="white" fill-opacity="0.56"/>
<circle cx="374.193" cy="210.242" r="0.678066" fill="white" fill-opacity="0.56"/>
<circle cx="256.209" cy="173.626" r="0.678066" fill="white" fill-opacity="0.56"/>
<circle cx="454.205" cy="100.395" r="0.678066" fill="white" fill-opacity="0.56"/>
<circle cx="283.332" cy="150.572" r="0.678066" fill="white" fill-opacity="0.56"/>
<circle cx="36.5174" cy="8.17782" r="0.678066" fill="white" fill-opacity="0.56"/>
<circle cx="218.238" cy="104.463" r="0.678066" fill="white" fill-opacity="0.56"/>
<circle cx="27.0233" cy="105.819" r="0.678066" fill="white" fill-opacity="0.56"/>
<circle cx="466.41" cy="6.82168" r="0.678066" fill="white" fill-opacity="0.56"/>
<circle cx="310.455" cy="123.449" r="0.678066" fill="white" fill-opacity="0.56"/>
<circle cx="220.951" cy="40.725" r="0.678066" fill="white" fill-opacity="0.56"/>
<circle cx="399.959" cy="81.409" r="0.678066" fill="white" fill-opacity="0.56"/>
<circle cx="352.496" cy="208.885" r="0.678066" fill="white" fill-opacity="0.56"/>
<circle cx="79.9115" cy="305.171" r="0.678066" fill="white" fill-opacity="0.56"/>
<circle cx="55.5013" cy="89.5457" r="0.678066" fill="white" fill-opacity="0.56"/>
<circle cx="117.883" cy="348.567" r="0.678066" fill="white" fill-opacity="0.56"/>
<circle cx="60.9256" cy="367.553" r="0.678066" fill="white" fill-opacity="0.56"/>
<circle cx="104.322" cy="527.576" r="0.678066" fill="white" fill-opacity="0.56"/>
<circle cx="31.0897" cy="303.815" r="0.678066" fill="white" fill-opacity="0.56"/>
<circle cx="281.974" cy="316.02" r="0.678066" fill="white" fill-opacity="0.56"/>
<circle cx="184.334" cy="417.73" r="0.678066" fill="white" fill-opacity="0.56"/>
<circle cx="13.4608" cy="467.907" r="0.678066" fill="white" fill-opacity="0.56"/>
<circle cx="196.539" cy="324.157" r="0.678066" fill="white" fill-opacity="0.56"/>
<circle cx="140.937" cy="301.102" r="0.678066" fill="white" fill-opacity="0.56"/>
<circle cx="40.5838" cy="440.784" r="0.678066" fill="white" fill-opacity="0.56"/>
<circle cx="130.09" cy="398.744" r="0.678066" fill="white" fill-opacity="0.56"/>
<circle cx="82.6248" cy="526.22" r="0.678066" fill="white" fill-opacity="0.56"/>
<circle cx="77.1976" cy="165.489" r="0.678066" fill="white" fill-opacity="0.56"/>
</g>
<defs>
<clipPath id="clip0_8471_24645">
<rect y="-25" width="1440" height="950" rx="20" fill="white"/>
</clipPath>
</defs>
</svg>
